<?xml version="1.0" standalone="no"?><!DOCTYPE svg PUBLIC "-//W3C//DTD SVG 1.1//EN" "http://www.w3.org/Graphics/SVG/1.1/DTD/svg11.dtd"><svg t="1624505315513" class="icon" viewBox="0 0 1024 1024" version="1.1" xmlns="http://www.w3.org/2000/svg" p-id="3285" xmlns:xlink="http://www.w3.org/1999/xlink" width="200" height="200"><defs><style type="text/css"></style></defs><path d="M522.098 825.237L100.015 512.978l425.313-311.415-1.134 219.033-63.999-0.34 0.476-92.029-252.686 185.017 250.767 185.52 0.483-93.125 63.999 0.332z" fill="currentColor" p-id="3286"></path><path d="M927.996 895.639l-78.278-94.295c-1.197-1.439-121.436-145.06-219.643-174.439-69.697-20.852-114.845-15.182-135.555-9.947-6.043 1.528-9.195 2.856-9.249 2.879 0.278-0.119 0.416-0.188 0.416-0.188l-26.283-55.152c1.749-0.809 8.34-3.67 19.736-6.551 26.979-6.82 84.795-14.502 168.914 10.664 55.892 16.72 114.489 60.758 160.868 102.699-23.124-61.906-58.291-131.924-106.667-165.366-50.304-34.774-108.331-48.518-148.151-53.924-44.252-6.006-76.694-3.377-77.017-3.35l-5.46-60.687c6.071-0.535 150.03-12.189 266.165 68.095 50.1 34.633 93.374 99.532 128.62 192.895 25.459 67.437 37.108 124.773 37.591 127.181l23.993 119.486z" fill="currentColor" p-id="3287"></path><path d="M458.909 320.962l64-0.333 0.667 128.214-64 0.333zM459.204 564.498h63.874v52.169h-63.874z" fill="currentColor" p-id="3288"></path></svg>