<?xml version="1.0" standalone="no"?><!DOCTYPE svg PUBLIC "-//W3C//DTD SVG 1.1//EN" "http://www.w3.org/Graphics/SVG/1.1/DTD/svg11.dtd"><svg t="1624505389222" class="icon" viewBox="0 0 1024 1024" version="1.1" xmlns="http://www.w3.org/2000/svg" p-id="1671" xmlns:xlink="http://www.w3.org/1999/xlink" width="200" height="200"><defs><style type="text/css"></style></defs><path d="M512.4 901.6c-14.1 0-28.3-5.4-39.1-16.1l-84.3-84C286.4 699.2 145.9 559.2 142.7 556c-99-99-99-260.2 0-359.3 99-99 260.2-99 359.3 0 1.5 1.5 5.5 5.2 10.1 9.6 4.4-4.2 8.3-7.9 9.9-9.6 48-48 111.8-74.4 179.6-74.4 67.9 0 131.7 26.4 179.6 74.4 48 48 74.4 111.8 74.4 179.6S929.2 508 881.3 556c-4.2 4.2-253.9 253.6-329.8 329.4-10.8 10.8-24.9 16.2-39.1 16.2zM322.3 172.4c-54.5 0-105.8 21.2-144.3 59.7-79.6 79.6-79.6 209 0 288.5 3.2 3.2 143.6 143.2 246.2 245.4l84.3 84c2.1 2.1 5.5 2.1 7.5 0 75.9-75.8 325.5-325.2 329.8-329.4 79.6-79.6 79.6-209 0-288.5-38.5-38.5-89.8-59.7-144.3-59.7-54.5 0-105.8 21.2-144.3 59.7-5.1 5.1-25.5 24.4-27.8 26.6-9.5 9-24.4 9.1-34 0.3-2.4-2.2-23.7-21.6-28.9-26.9-38.4-38.5-89.6-59.7-144.2-59.7z" fill="currentColor" p-id="1672"></path></svg>