<?xml version="1.0" standalone="no"?><!DOCTYPE svg PUBLIC "-//W3C//DTD SVG 1.1//EN" "http://www.w3.org/Graphics/SVG/1.1/DTD/svg11.dtd"><svg t="1624505413176" class="icon" viewBox="0 0 1024 1024" version="1.1" xmlns="http://www.w3.org/2000/svg" p-id="1866" xmlns:xlink="http://www.w3.org/1999/xlink" width="200" height="200"><defs><style type="text/css"></style></defs><path d="M881.3 196.8c-48-48-111.8-74.4-179.6-74.4-67.9 0-131.7 26.4-179.6 74.4-1.6 1.6-5.5 5.3-9.9 9.6-4.7-4.3-8.6-8-10.1-9.6-99-99-260.2-99-359.3 0-99 99-99 260.2 0 359.3 4.1 4.1 252.4 251.5 330.6 329.4 10.4 10.4 24.3 16.1 39 16.1 14.8 0 28.6-5.7 39.1-16.2 25.6-25.6 71.3-71.3 120.7-120.6 91.6-91.5 205.5-205.3 208.9-208.6l0.2-0.2c48-48 74.4-111.8 74.4-179.6s-26.5-131.6-74.4-179.6z" fill="currentColor" p-id="1867"></path></svg>