<?xml version="1.0" standalone="no"?><!DOCTYPE svg PUBLIC "-//W3C//DTD SVG 1.1//EN" "http://www.w3.org/Graphics/SVG/1.1/DTD/svg11.dtd"><svg t="1625471332017" class="icon" viewBox="0 0 1024 1024" version="1.1" xmlns="http://www.w3.org/2000/svg" p-id="3011" xmlns:xlink="http://www.w3.org/1999/xlink" width="200" height="200"><defs><style type="text/css"></style></defs><path d="M736.517039 906.087914h-112.168207c-30.959148 0-56.138291-25.179143-56.138291-56.138291V176.687504c0-30.959148 25.179143-56.138291 56.138291-56.138291h112.168207c31.031398 0 56.138291 25.179143 56.138292 56.138291v673.262119c0 30.959148-25.106893 56.138291-56.138292 56.138291z m0-701.403514a28.033021 28.033021 0 0 0-28.03302-28.033021h-56.138291c-15.497636 0-28.033021 12.535384-28.033021 28.033021v617.232202c0 15.497636 12.535384 28.033021 28.033021 28.033021h56.138291c15.497636 0 28.033021-12.535384 28.03302-28.033021V204.6844z m-336.649121 701.403514H287.699711c-30.959148 0-56.138291-25.179143-56.138291-56.138291V176.687504c0-30.959148 25.179143-56.138291 56.138291-56.138291h112.168207c31.031398 0 56.138291 25.179143 56.138291 56.138291v673.262119c0 30.959148-25.070768 56.138291-56.138291 56.138291z m0-701.403514a28.033021 28.033021 0 0 0-28.033021-28.033021H315.732731c-15.497636 0-28.033021 12.535384-28.03302 28.033021v617.232202c0 15.497636 12.535384 28.033021 28.03302 28.033021h56.138291a28.033021 28.033021 0 0 0 28.033021-28.033021V204.6844h-0.036125z" fill="currentColor" p-id="3012"></path></svg>