<?xml version="1.0" standalone="no"?><!DOCTYPE svg PUBLIC "-//W3C//DTD SVG 1.1//EN" "http://www.w3.org/Graphics/SVG/1.1/DTD/svg11.dtd"><svg t="1625471365635" class="icon" viewBox="0 0 1024 1024" version="1.1" xmlns="http://www.w3.org/2000/svg" p-id="3147" xmlns:xlink="http://www.w3.org/1999/xlink" width="200" height="200"><defs><style type="text/css"></style></defs><path d="M610.621322 904.787413V847.13187c168.306498-37.100402 280.583081-166.969872 280.583081-334.662245 0-168.667749-115.816835-303.016722-280.583081-334.662245V120.115713c190.126014 27.74402 336.721372 191.968391 336.721372 392.317787s-146.595357 364.573767-336.721372 392.353913zM470.420095 175.820504L217.942285 344.127002h-84.171312c-31.031398 0-56.138291 25.070768-56.138291 56.138291v224.372539c0 31.031398 25.070768 56.138291 56.138291 56.138292h84.171312l252.47781 168.306498c30.959148 0 56.029916-25.070768 56.029916-56.138291V231.958795c0-31.031398-25.070768-56.138291-56.029916-56.138291zM217.942285 596.604812c0 15.497636-12.535384 28.033021-28.105271 28.03302h-28.03302a28.033021 28.033021 0 0 1-28.033021-28.03302v-168.306498a28.033021 28.033021 0 0 1 28.033021-28.033021h28.03302c15.569886 0 28.105271 12.535384 28.105271 28.033021v168.306498z m252.47781 196.339519l-196.411769-122.68059V354.639385l196.411769-122.68059V792.944331z" fill="currentColor" p-id="3148"></path><path d="M779.036196 512.469625c0 98.838072-73.297679 179.794257-168.414874 193.594017V649.889226c64.049672-13.00501 112.276582-69.576801 112.276582-137.455726 0-67.878925-48.22691-124.450716-112.276582-137.455725V318.875609c95.08107 13.79976 168.414873 94.755944 168.414874 193.594016z" fill="currentColor" p-id="3149"></path></svg>